# xmcd
#
# Track frame offsets: 
#        150
#        15300
#        30651
#        44320
#        57601
#        76536
#        94487
#        111342
#        127750
#        141567
#        156630
#        172056
#        190515
#        208972
#        225190
#        237408
#        252146
#        267930
#
# Disc length: 3783 seconds
#
# Revision: 0
# Processed by: cddbd v1.5.2PL0 Copyright (c) Steve Scherf et al.
# Submitted via: ExactAudioCopyFreeDBPlugin 1.0
#
DISCID=f60ec512
DTITLE=Various Artist - Beaut Ute Anthems 2016 - CD 2
DYEAR=2016
DGENRE=Country
TTITLE0=Dierks Bentley - Free and Easy (Down The Road I Go)
TTITLE1=Stealers Wheel - Stuck In The Middle With You
TTITLE2=Catherine Britt - I’m Gone
TTITLE3=Troy Cassar-Daley - Road Ready
TTITLE4=Little Big Town - Good As Gone
TTITLE5=Kenny Chesney - Ain’t Back Yet
TTITLE6=Jody Direen - One Way Ticket
TTITLE7=Maddie and Tae - Girl In A Country Song
TTITLE8=Lady Antebellum - Compass
TTITLE9=Easton Corbin - Lovin’ You Is Fun
TTITLE10=The Wolfe Brothers - Beer Tastes Better
TTITLE11=Shooter Jennings - Gone To Carolina
TTITLE12=The Road Hammers - I’m A Road Hammer
TTITLE13=Charlie Daniels - The Devil Went Down To Georgia
TTITLE14=Miranda Lambert - Dry Town
TTITLE15=George Baker Selection - Little Green Bag
TTITLE16=Dean Brody - Sunday Drive
TTITLE17=The Sunny Cowgirls - Gonna Drive
EXTD=
EXTT0=
EXTT1=
EXTT2=
EXTT3=
EXTT4=
EXTT5=
EXTT6=
EXTT7=
EXTT8=
EXTT9=
EXTT10=
EXTT11=
EXTT12=
EXTT13=
EXTT14=
EXTT15=
EXTT16=
EXTT17=
PLAYORDER=
